<svg width="24" height="24" viewBox="0 0 24 24" fill="none" xmlns="http://www.w3.org/2000/svg">
<path d="M12 15.75C14.0711 15.75 15.75 14.0711 15.75 12C15.75 9.92893 14.0711 8.25 12 8.25C9.92893 8.25 8.25 9.92893 8.25 12C8.25 14.0711 9.92893 15.75 12 15.75Z" stroke="#90979F" stroke-width="1.4" stroke-linecap="round" stroke-linejoin="round"/>
<path d="M16.9781 19.4996C15.3076 20.6087 13.3145 21.1282 11.3151 20.9756C9.31573 20.823 7.42456 20.0071 5.94169 18.6573C4.45883 17.3075 3.4692 15.5011 3.12984 13.5248C2.79048 11.5486 3.12083 9.51555 4.06846 7.74839C5.0161 5.98124 6.52674 4.58116 8.3607 3.77032C10.1947 2.95948 12.2469 2.78431 14.1917 3.27262C16.1365 3.76094 17.8626 4.88475 19.096 6.46575C20.3294 8.04674 20.9995 9.99436 21 11.9996C21 14.0714 20.25 15.7496 18.375 15.7496C16.5 15.7496 15.75 14.0714 15.75 11.9996V8.24957" stroke="#90979F" stroke-width="1.4" stroke-linecap="round" stroke-linejoin="round"/>
</svg>
