<svg width="24" height="24" viewBox="0 0 24 24" fill="none" xmlns="http://www.w3.org/2000/svg">
<path d="M5.26855 9.75009C5.2673 8.86094 5.44197 7.98034 5.78251 7.15899C6.12305 6.33764 6.62272 5.59178 7.25275 4.96437C7.88277 4.33696 8.6307 3.84039 9.45346 3.50327C10.2762 3.16615 11.1575 2.99514 12.0467 3.00009C15.7592 3.02821 18.731 6.11259 18.731 9.83446V10.5001C18.731 13.8563 19.4342 15.8063 20.0529 16.8751C20.1186 16.9889 20.1533 17.118 20.1534 17.2494C20.1535 17.3809 20.1191 17.51 20.0536 17.6239C19.9881 17.7379 19.8938 17.8326 19.7801 17.8986C19.6665 17.9646 19.5375 17.9996 19.406 18.0001H4.59355C4.46212 17.9996 4.33312 17.9646 4.21948 17.8986C4.10583 17.8326 4.01153 17.7379 3.94601 17.6239C3.8805 17.51 3.84608 17.3809 3.84619 17.2494C3.84631 17.118 3.88096 16.9889 3.94667 16.8751C4.56542 15.8063 5.26855 13.8563 5.26855 10.5001V9.75009Z" stroke="black" stroke-width="1.4" stroke-linecap="round" stroke-linejoin="round"/>
<path d="M9 18V18.75C9 19.5456 9.31607 20.3087 9.87868 20.8713C10.4413 21.4339 11.2044 21.75 12 21.75C12.7956 21.75 13.5587 21.4339 14.1213 20.8713C14.6839 20.3087 15 19.5456 15 18.75V18" stroke="black" stroke-width="1.4" stroke-linecap="round" stroke-linejoin="round"/>
</svg>
