<svg width="42" height="42" viewBox="0 0 42 42" fill="none" xmlns="http://www.w3.org/2000/svg">
<path d="M12.7969 33.0258L7.39922 37.5539C7.208 37.7121 6.97584 37.8129 6.72967 37.8445C6.4835 37.8761 6.23341 37.8373 6.00842 37.7326C5.78342 37.6278 5.59274 37.4614 5.4585 37.2526C5.32426 37.0439 5.25197 36.8013 5.25 36.5531V10.5C5.25 10.1519 5.38828 9.81806 5.63442 9.57192C5.88056 9.32578 6.2144 9.1875 6.5625 9.1875H35.4375C35.7856 9.1875 36.1194 9.32578 36.3656 9.57192C36.6117 9.81806 36.75 10.1519 36.75 10.5V31.5C36.75 31.8481 36.6117 32.1819 36.3656 32.4281C36.1194 32.6742 35.7856 32.8125 35.4375 32.8125H13.4039L12.7969 33.0258Z" stroke="#007CC0" stroke-width="2" stroke-linecap="round" stroke-linejoin="round"/>
<path d="M15.75 18.375H26.25" stroke="#007CC0" stroke-width="2" stroke-linecap="round" stroke-linejoin="round"/>
<path d="M15.75 23.625H26.25" stroke="#007CC0" stroke-width="2" stroke-linecap="round" stroke-linejoin="round"/>
</svg>
