<svg width="36" height="37" viewBox="0 0 36 37" fill="none" xmlns="http://www.w3.org/2000/svg">
<path d="M12 24.3193H24V27.3193H12V24.3193ZM12 18.3193H24V21.3193H12V18.3193ZM21 3.31934H9C7.35 3.31934 6 4.66934 6 6.31934V30.3193C6 31.9693 7.335 33.3193 8.985 33.3193H27C28.65 33.3193 30 31.9693 30 30.3193V12.3193L21 3.31934ZM27 30.3193H9V6.31934H19.5V13.8193H27V30.3193Z" fill="#1A1B1C"/>
<rect x="9.8042" y="16.3193" width="16.3915" height="12.8607" fill="#FCFEFF"/>
<path d="M14.223 27.8193L11.7259 19.0921H13.7415L15.1861 25.156H15.2585L16.8523 19.0921H18.5781L20.1676 25.1688H20.2443L21.6889 19.0921H23.7045L21.2074 27.8193H19.4091L17.7472 22.1134H17.679L16.0213 27.8193H14.223Z" fill="#1A1B1C"/>
</svg>
