<svg width="37" height="37" viewBox="0 0 37 37" fill="none" xmlns="http://www.w3.org/2000/svg">
<path d="M32.249 4.80762H5.24902C3.74902 4.80762 2.24902 6.30762 2.24902 7.80762V28.8076C2.24902 30.4576 3.59902 31.8076 5.24902 31.8076H32.249C33.749 31.8076 35.249 30.3076 35.249 28.8076V7.80762C35.249 6.30762 33.749 4.80762 32.249 4.80762ZM32.249 28.6876C32.219 28.7326 32.159 28.7776 32.129 28.8076H5.24902V7.92762L5.36902 7.80762H32.114C32.159 7.83762 32.204 7.89762 32.234 7.92762V28.6876H32.249ZM17.249 23.5726L13.499 19.0576L8.24902 25.8076H29.249L22.499 16.8076L17.249 23.5726Z" fill="#1A1B1C"/>
</svg>
