<svg width="24" height="24" viewBox="0 0 24 24" fill="none" xmlns="http://www.w3.org/2000/svg">
<path d="M12 21C16.9706 21 21 16.9706 21 12C21 7.02944 16.9706 3 12 3C7.02944 3 3 7.02944 3 12C3 16.9706 7.02944 21 12 21Z" stroke="#90979F" stroke-width="1.4" stroke-linecap="round" stroke-linejoin="round"/>
<path d="M13.2563 12.4316C13.7685 12.1524 14.1731 11.7105 14.4063 11.1757C14.6394 10.641 14.6878 10.0438 14.5437 9.47848C14.3997 8.91317 14.0714 8.41195 13.6108 8.05398C13.1501 7.69601 12.5834 7.50168 12 7.50168C11.4166 7.50168 10.8499 7.69601 10.3892 8.05398C9.92861 8.41195 9.60035 8.91317 9.45629 9.47848C9.31224 10.0438 9.3606 10.641 9.59374 11.1757C9.82688 11.7105 10.2315 12.1524 10.7438 12.4316L9.45 15.4503C9.40029 15.5642 9.37966 15.6887 9.38997 15.8125C9.40028 15.9364 9.4412 16.0557 9.50907 16.1598C9.57693 16.264 9.6696 16.3496 9.77874 16.409C9.88789 16.4684 10.0101 16.4998 10.1344 16.5003H13.8656C13.9899 16.4998 14.1121 16.4684 14.2213 16.409C14.3304 16.3496 14.4231 16.264 14.4909 16.1598C14.5588 16.0557 14.5997 15.9364 14.61 15.8125C14.6203 15.6887 14.5997 15.5642 14.55 15.4503L13.2563 12.4316Z" stroke="#90979F" stroke-width="1.4" stroke-linecap="round" stroke-linejoin="round"/>
</svg>
