<svg width="257" height="291" viewBox="0 0 257 291" fill="none" xmlns="http://www.w3.org/2000/svg">
<g clip-path="url(#clip0_658_21310)">
<path d="M83.4163 33.7375C83.4163 33.7375 66.0236 37.9118 66.4241 61.9283C66.8246 85.9448 53.0935 66.1026 41.9942 61.1849C30.8949 56.2672 7.26602 43.5156 0.80097 87.7746C-5.66408 132.034 29.7507 184.298 67.5111 207.972C105.272 231.645 132.619 266.412 147.609 276.59C162.599 286.769 202.934 303.294 217.809 275.046C232.685 246.798 212.374 213.347 210.772 192.875C209.17 172.404 193.322 112.191 152.358 71.4777C111.393 30.764 97.4906 29.1629 83.4163 33.7375Z" fill="#F8F8F4"/>
<path d="M83.4163 33.7375C83.4163 33.7375 66.0236 37.9118 66.4241 61.9283C66.8246 85.9448 53.0935 66.1026 41.9942 61.1849C30.8949 56.2672 7.26602 43.5156 0.80097 87.7746C-5.66408 132.034 29.7507 184.298 67.5111 207.972C105.272 231.645 132.619 266.412 147.609 276.59C162.599 286.769 202.934 303.294 217.809 275.046C232.685 246.798 212.374 213.347 210.772 192.875C209.17 172.404 193.322 112.191 152.358 71.4777C111.393 30.764 97.4906 29.1629 83.4163 33.7375Z" fill="#F0F0E7"/>
<path d="M69.9141 186.585L104.642 87.8318L111.794 83.829L86.0481 191.789L69.9141 186.585Z" fill="#007CC0"/>
<path d="M86.2197 98.9251L79.2397 93.2069L85.8764 220.837C89.3664 223.525 92.7992 226.327 96.0603 229.072L86.2197 98.9251Z" fill="#007CC0"/>
<path d="M61.2178 108.703L59.5015 202.425C62.1333 204.369 64.8223 206.199 67.5113 207.914C73.9191 211.917 80.0981 216.32 85.8766 220.78L79.2399 93.2069L72.0311 95.0368C65.7377 96.695 61.3323 102.242 61.2178 108.703Z" fill="#1E6890"/>
<path d="M205.394 177.551L210.715 180.982L111.107 212.489C108.99 213.175 106.645 212.889 104.7 211.803L103.155 210.888L205.394 177.551Z" fill="#007CC0"/>
<path d="M107.045 194.762L201.675 162.626L205.394 177.493L103.155 210.831L102.239 202.196C101.896 198.937 103.899 195.849 107.045 194.762Z" fill="#1E6890"/>
<path d="M187.658 290.657L147.609 165.943L138.055 169.088L162.084 284.252C169.808 287.569 178.905 290.257 187.658 290.657Z" fill="#007CC0"/>
<path opacity="0.7" d="M180.85 169.717C180.85 169.717 175.014 183.097 166.833 186.585V190.131V194.877L162.942 196.135L156.992 180.753L180.85 169.717Z" fill="#092D62"/>
<path d="M138.512 195.563L111.794 83.829L104.642 87.8318L126.154 199.394L138.512 195.563Z" fill="#007CC0"/>
<path d="M154.875 172.862L147.609 165.943L187.658 290.657C190.347 290.771 193.036 290.714 195.668 290.314L154.875 172.862Z" fill="#1E6890"/>
<path opacity="0.7" d="M141.43 185.213C141.43 185.213 149.097 185.327 153.388 183.955L158.251 182.583L157.564 180.638L140.171 179.095L141.43 185.213Z" fill="#092D62"/>
<path d="M150.012 53.1222C134.793 27.1615 116.485 10.9218 102.067 6.57595L99.9506 1.65829C99.9506 1.65829 93.6572 3.25939 86.6772 7.09059C85.4757 7.66241 84.3315 8.3486 83.1872 9.14915L83.13 9.20633C74.262 15.8395 68.7696 30.9355 70.1427 53.1222C73.3466 104.472 110.993 181.039 151.557 181.039C151.557 181.039 161.168 182.068 173.927 174.12L171.982 169.545C185.427 146.215 173.011 92.3492 150.012 53.1222Z" fill="#FFC633"/>
<path opacity="0.7" d="M120.776 171.604L121.692 176.35C121.692 176.35 128.958 182.125 135.48 182.926L133.935 176.407C133.935 176.407 128.557 172.976 124.781 170.288L120.776 171.604Z" fill="#092D62"/>
<path d="M150.012 53.1222C134.793 27.1615 116.485 10.9218 102.067 6.57595L99.9506 1.65829C99.9506 1.65829 93.6572 3.25939 86.6772 7.09059C85.4757 7.66241 84.3315 8.3486 83.1872 9.14915L83.13 9.20633C74.262 15.8395 68.7696 30.9355 70.1427 53.1222C73.3466 104.472 110.993 181.039 151.557 181.039C151.557 181.039 161.168 182.068 173.927 174.12L171.982 169.545C185.427 146.215 173.011 92.3492 150.012 53.1222Z" fill="url(#paint0_linear_658_21310)"/>
<path d="M163.171 47.7471C193.265 99.0967 205.28 175.664 164.716 175.664C124.152 175.664 86.5058 99.1539 83.3019 47.7471C81.4139 17.0975 92.6276 0 107.732 0C122.836 0 145.206 17.0975 163.171 47.7471Z" fill="#FFDB05"/>
<path d="M159.28 54.7805C184.626 96.1232 195.668 158.28 162.599 158.909C129.53 159.538 97.6622 97.8387 94.1723 56.0957C92.1126 31.1071 100.981 17.0403 113.281 16.8116C125.639 16.5256 144.119 30.0778 159.28 54.7805Z" fill="#F79A3E"/>
<g style="mix-blend-mode:multiply">
<path d="M122.321 107.788C122.321 107.788 119.06 107.045 119.403 117.166C119.747 127.287 119.403 145.3 119.403 145.3L126.669 154.277L123.751 110.705C123.694 110.705 123.694 110.247 122.321 107.788Z" fill="url(#paint1_linear_658_21310)"/>
</g>
<path d="M154.074 66.6744C169.979 93.7787 176.33 134.207 154.875 134.207C133.42 134.207 113.567 93.7787 111.851 66.6744C110.821 50.4918 116.771 41.4571 124.781 41.4571C132.791 41.4571 144.577 50.4918 154.074 66.6744Z" fill="#FFEFA3"/>
<path d="M153.845 66.6744C170.036 93.7787 176.501 134.207 154.703 134.207C132.905 134.207 112.652 93.7787 110.935 66.6744C109.905 50.4918 115.913 41.4571 124.094 41.4571C132.276 41.4571 144.176 50.4918 153.845 66.6744Z" fill="url(#paint2_linear_658_21310)"/>
<path d="M146.122 78.797C152.93 90.3478 155.619 107.617 146.465 107.617C137.311 107.617 128.843 90.3478 128.1 78.797C127.642 71.878 130.217 68.0468 133.592 68.0468C136.968 68.0468 142.06 71.878 146.122 78.797Z" fill="#FFC633"/>
<g style="mix-blend-mode:multiply">
<path d="M137.425 84.6296C137.425 84.6296 136.395 86.5166 138.512 89.2614C140.572 92.0061 186.628 161.311 186.628 161.311L190.118 148.502L137.425 84.6296Z" fill="url(#paint3_linear_658_21310)"/>
</g>
<g style="mix-blend-mode:multiply">
<path d="M140.229 90.9768L159.624 139.81L164.372 136.951L144.577 92.4635C144.634 92.5207 140.4 87.6602 140.229 90.9768Z" fill="url(#paint4_linear_658_21310)"/>
</g>
<path d="M118.602 165.085L47.4869 192.018L40.793 189.387L40.7358 190.988C40.6213 193.218 41.7084 195.334 43.5964 196.592C45.5988 197.907 48.1162 198.193 50.4047 197.393L124.61 170.288L118.602 165.085Z" fill="#007CC0"/>
<path d="M45.2555 175.892L118.602 148.559V165.142L45.4844 192.761C43.1386 193.619 40.7357 191.846 40.8501 189.387L41.1934 181.439C41.3078 178.98 42.9098 176.75 45.2555 175.892Z" fill="#1E6890"/>
<path d="M118.602 148.559L120.49 150.332C123.236 152.962 124.781 156.565 124.724 160.339L124.609 170.346L118.602 165.142V148.559Z" fill="#60A8B1"/>
<path d="M201.675 162.683L204.307 164.799C206.31 166.4 207.74 168.63 208.369 171.146L210.772 181.039L205.451 177.608L201.675 162.683Z" fill="#60A8B1"/>
<path d="M181.479 32.3651L180.106 24.1881L196.64 1.37238V16.3541C196.64 17.6121 197.098 18.8129 197.956 19.785C198.757 20.6999 199.902 21.2718 201.16 21.4433L213.747 22.93L194.295 38.5408L185.884 36.8825C185.884 36.9397 182.166 36.425 181.479 32.3651Z" fill="url(#paint5_linear_658_21310)"/>
<path d="M196.812 16.2969C195.21 16.8687 146.007 74.5655 137.997 83.9434C137.368 84.6868 137.254 85.8304 137.769 86.6882C138.57 88.0605 140.458 88.2321 141.545 87.0312L201.561 20.1853C202.133 18.7557 201.733 14.4671 196.812 16.2969Z" fill="#A7D4D9"/>
<g style="mix-blend-mode:multiply">
<path d="M196.812 16.2969C195.21 16.8687 146.007 74.5655 137.997 83.9434C137.368 84.6868 137.254 85.8304 137.769 86.6882C138.57 88.0605 140.458 88.2321 141.545 87.0312L201.561 20.1853C202.133 18.7557 201.733 14.4671 196.812 16.2969Z" fill="url(#paint6_linear_658_21310)"/>
</g>
<path d="M221.528 47.6327L225.189 36.4822L245.214 24.6455L238.749 39.5701L242.239 46.146L257 50.2059L232.055 58.5545L224.503 54.6661L221.528 47.6327Z" fill="url(#paint7_linear_658_21310)"/>
<path d="M238.749 39.57C236.689 39.4557 155.047 81.2558 141.773 88.0605C140.686 88.6323 140.057 89.8332 140.229 91.034C140.515 92.921 142.574 94.0075 144.291 93.2069L242.239 46.2032C243.555 44.7736 245.1 39.7988 238.749 39.57Z" fill="#87C4CA"/>
<g style="mix-blend-mode:multiply">
<path d="M238.749 39.57C236.689 39.4557 155.047 81.2558 141.773 88.0605C140.686 88.6323 140.057 89.8332 140.229 91.034C140.515 92.921 142.574 94.0075 144.291 93.2069L242.239 46.2032C243.555 44.7736 245.1 39.7988 238.749 39.57Z" fill="url(#paint8_linear_658_21310)"/>
</g>
<path d="M197.899 97.0381L202.705 86.002L230.225 77.9965L218.21 94.4649L219.354 103.271L231.255 118.024L202.705 114.936L197.899 105.501V97.0381Z" fill="url(#paint9_linear_658_21310)"/>
<path d="M218.21 94.4649C216.15 94.6365 136.968 104.986 122.321 107.846C121.12 108.074 120.09 109.046 120.033 110.247C119.918 112.249 121.406 113.735 123.351 113.449L219.354 103.271C223.016 103.042 224.045 93.8931 218.21 94.4649Z" fill="#C2E1E4"/>
<g style="mix-blend-mode:multiply">
<path d="M218.21 94.4649C216.15 94.6365 136.968 104.986 122.321 107.846C121.12 108.074 120.09 109.046 120.033 110.247C119.918 112.249 121.406 113.735 123.351 113.449L219.354 103.271C223.016 103.042 224.045 93.8931 218.21 94.4649Z" fill="url(#paint10_linear_658_21310)"/>
</g>
<path d="M5.49265 50.4918C15.9054 42.7151 29.1788 59.2979 36.0443 69.1904C42.9098 79.0829 57.3847 93.6072 49.7754 101.613C42.1661 109.618 37.8179 95.1511 28.7211 87.1456C19.6242 79.1401 -12.8155 64.2156 5.49265 50.4918Z" fill="#F79A3E"/>
<path d="M23.6288 97.7815C22.5418 98.2961 14.8753 104.643 23.6288 118.767C32.3824 132.891 34.7281 132.891 39.8201 137.809C44.912 142.727 52.6357 131.347 45.7702 122.541C38.9047 113.735 37.8748 107.388 33.9844 103.9C30.0939 100.412 29.0069 95.0939 23.6288 97.7815Z" fill="#FFDB05"/>
<path d="M195.954 218.607C195.954 218.607 192.922 223.868 203.391 234.39C213.861 244.911 221.127 244.511 228.737 250.629C236.346 256.748 238.635 246.798 234.058 241.08C229.481 235.362 215.006 228.9 211.916 224.326C208.827 219.751 198.242 210.602 195.954 218.607Z" fill="#FFDB05"/>
<path d="M186.113 186.585C188.859 193.047 195.496 201.796 201.275 203.225C207.74 204.826 205.966 196.02 202.705 192.647C199.444 189.273 196.984 184.069 194.238 181.896C191.491 179.666 182.509 178.008 186.113 186.585Z" fill="#F79A3E"/>
<path d="M159.624 232.331C155.848 228.671 144.119 216.72 139.542 221.638C135.022 226.613 140 230.33 142.86 234.79C145.721 239.25 151.614 247.313 156.649 245.54C161.741 243.768 164.716 237.306 159.624 232.331Z" fill="#F79A3E"/>
<path opacity="0.7" d="M59.6159 194.019L59.5015 202.482L84.389 193.276L93.7719 199.394L92.5133 182.011L59.6159 194.019Z" fill="#092D62"/>
<path opacity="0.7" d="M88.7944 132.891L90.8541 158.909L93.8864 157.766L96.0032 149.932L90.8541 128.031L88.7944 132.891Z" fill="#092D62"/>
<path d="M130.388 193.504C131.715 193.504 132.791 192.429 132.791 191.103C132.791 189.776 131.715 188.701 130.388 188.701C129.061 188.701 127.985 189.776 127.985 191.103C127.985 192.429 129.061 193.504 130.388 193.504Z" fill="#1E6890"/>
<path opacity="0.7" d="M138.512 195.563L142.288 189.387L141.029 183.269L135.938 184.984L138.512 195.563Z" fill="#092D62"/>
<path opacity="0.7" d="M60.3022 165.542L82.3292 157.251L90.8539 158.909L60.3595 170.288L60.3022 165.542Z" fill="#092D62"/>
<path opacity="0.7" d="M137.826 199.623L144.92 201.796L144.005 197.564L137.826 199.623Z" fill="#092D62"/>
</g>
<defs>
<linearGradient id="paint0_linear_658_21310" x1="108.8" y1="70.642" x2="144.816" y2="130.129" gradientUnits="userSpaceOnUse">
<stop offset="0.00200123" stop-color="white" stop-opacity="0"/>
<stop offset="0.0971443" stop-color="#FFF8E7" stop-opacity="0.0971443"/>
<stop offset="1" stop-color="#EF9B00"/>
</linearGradient>
<linearGradient id="paint1_linear_658_21310" x1="123.015" y1="148.984" x2="120.919" y2="119.058" gradientUnits="userSpaceOnUse">
<stop offset="0.00200123" stop-color="white" stop-opacity="0"/>
<stop offset="1" stop-color="#93CAD0"/>
</linearGradient>
<linearGradient id="paint2_linear_658_21310" x1="142.667" y1="96.0449" x2="163.682" y2="146.506" gradientUnits="userSpaceOnUse">
<stop offset="0.00200123" stop-color="white" stop-opacity="0"/>
<stop offset="0.0971443" stop-color="#FFF8E7" stop-opacity="0.0971443"/>
<stop offset="1" stop-color="#FFB200"/>
</linearGradient>
<linearGradient id="paint3_linear_658_21310" x1="183.759" y1="135.569" x2="140.963" y2="110.761" gradientUnits="userSpaceOnUse">
<stop offset="0.00200123" stop-color="white" stop-opacity="0"/>
<stop offset="1" stop-color="#93CAD0"/>
</linearGradient>
<linearGradient id="paint4_linear_658_21310" x1="160.668" y1="135.337" x2="145.425" y2="100.45" gradientUnits="userSpaceOnUse">
<stop offset="0.00200123" stop-color="white" stop-opacity="0"/>
<stop offset="1" stop-color="#93CAD0"/>
</linearGradient>
<linearGradient id="paint5_linear_658_21310" x1="208.437" y1="7.84957" x2="184.043" y2="40.2653" gradientUnits="userSpaceOnUse">
<stop offset="0.00200123" stop-color="white" stop-opacity="0"/>
<stop offset="0.0971443" stop-color="#FFF8E7" stop-opacity="0.0971443"/>
<stop offset="1" stop-color="#FFB200"/>
</linearGradient>
<linearGradient id="paint6_linear_658_21310" x1="155.35" y1="79.16" x2="179.359" y2="33.9754" gradientUnits="userSpaceOnUse">
<stop offset="0.00200123" stop-color="white" stop-opacity="0"/>
<stop offset="1" stop-color="#93CAD0"/>
</linearGradient>
<linearGradient id="paint7_linear_658_21310" x1="281.405" y1="27.088" x2="202.079" y2="54.1802" gradientUnits="userSpaceOnUse">
<stop offset="0.00200123" stop-color="white" stop-opacity="0"/>
<stop offset="0.0971443" stop-color="#FFF8E7" stop-opacity="0.0971443"/>
<stop offset="1" stop-color="#FFB200"/>
</linearGradient>
<linearGradient id="paint8_linear_658_21310" x1="211.764" y1="48.4288" x2="163.157" y2="94.2005" gradientUnits="userSpaceOnUse">
<stop offset="0.00200123" stop-color="white" stop-opacity="0"/>
<stop offset="1" stop-color="#93CAD0"/>
</linearGradient>
<linearGradient id="paint9_linear_658_21310" x1="249.024" y1="94.3761" x2="207.07" y2="102.771" gradientUnits="userSpaceOnUse">
<stop offset="0.00200123" stop-color="white" stop-opacity="0"/>
<stop offset="0.0971443" stop-color="#FFF8E7" stop-opacity="0.0971443"/>
<stop offset="1" stop-color="#FFB200"/>
</linearGradient>
<linearGradient id="paint10_linear_658_21310" x1="156.104" y1="104.219" x2="214.175" y2="103.074" gradientUnits="userSpaceOnUse">
<stop offset="0.00200123" stop-color="white" stop-opacity="0"/>
<stop offset="1" stop-color="#93CAD0"/>
</linearGradient>
<clipPath id="clip0_658_21310">
<rect width="257" height="291" fill="white"/>
</clipPath>
</defs>
</svg>
