<svg width="377" height="360" viewBox="0 0 377 360" fill="none" xmlns="http://www.w3.org/2000/svg">
<path d="M1.8768 70.8223C1.8768 66.7725 4.39208 67.1835 5.87165 67.5729L186.971 139.223C187.415 212.82 189.812 359.759 188.747 359.759H183.864L0.101318 288.109C0.693147 217.367 1.8768 74.872 1.8768 70.8223Z" fill="#F79A3E"/>
<path d="M376.507 286.029L372.956 67.9646L187.417 139.225L189.637 359.626L376.507 286.029Z" fill="#007CC0"/>
<path d="M186.974 0.208252L5.43042 67.1853L186.974 138.446L372.068 67.1853L186.974 0.208252Z" fill="#FFDB05"/>
<path d="M187.414 300.825L61.3545 251.371V283.691L187.414 328.862L250.888 303.551V277.072L187.414 300.825Z" fill="white"/>
<path d="M187.414 204.257L61.3545 156.36V188.681L187.414 233.851L250.888 208.54V182.061L187.414 204.257Z" fill="white"/>
<path d="M188.748 26.6851L81.7747 67.1828L188.306 111.575L295.721 67.1828L188.748 26.6851Z" fill="#939598"/>
</svg>
