<svg width="24" height="24" viewBox="0 0 24 24" fill="none" xmlns="http://www.w3.org/2000/svg">
<path d="M15 7.5001L7.19067 15.4407C6.93213 15.7261 6.79322 16.0999 6.80269 16.4848C6.81217 16.8697 6.96931 17.2363 7.24158 17.5086C7.51385 17.7808 7.88039 17.938 8.26532 17.9474C8.65025 17.9569 9.02408 17.818 9.30942 17.5595L18.6188 8.11885C19.1359 7.54817 19.4137 6.80051 19.3947 6.03065C19.3758 5.26079 19.0615 4.52771 18.517 3.98317C17.9724 3.43864 17.2393 3.12436 16.4695 3.1054C15.6996 3.08645 14.952 3.36427 14.3813 3.88135L5.07192 13.322C4.22902 14.1649 3.75549 15.3081 3.75549 16.5001C3.75549 17.6921 4.22902 18.8353 5.07192 19.6782C5.91481 20.5211 7.05801 20.9946 8.25004 20.9946C9.44207 20.9946 10.5853 20.5211 11.4282 19.6782L19.125 12.0001" stroke="#1A1B1C" stroke-width="1.6" stroke-linecap="round" stroke-linejoin="round"/>
</svg>
