<svg width="42" height="42" viewBox="0 0 42 42" fill="none" xmlns="http://www.w3.org/2000/svg">
<path d="M21 29.5312C24.6244 29.5312 27.5625 26.5931 27.5625 22.9688C27.5625 19.3444 24.6244 16.4062 21 16.4062C17.3756 16.4062 14.4375 19.3444 14.4375 22.9688C14.4375 26.5931 17.3756 29.5312 21 29.5312Z" stroke="#2FBDCE" stroke-width="2" stroke-linecap="round" stroke-linejoin="round"/>
<path d="M32.1562 19.0313C33.6849 19.0287 35.193 19.3834 36.5602 20.067C37.9275 20.7506 39.1161 21.7443 40.0312 22.9688" stroke="#2FBDCE" stroke-width="2" stroke-linecap="round" stroke-linejoin="round"/>
<path d="M1.96875 22.9688C2.88389 21.7443 4.07249 20.7506 5.43975 20.067C6.80701 19.3834 8.31511 19.0287 9.84375 19.0313" stroke="#2FBDCE" stroke-width="2" stroke-linecap="round" stroke-linejoin="round"/>
<path d="M11.5498 35.4392C12.4141 33.6691 13.7582 32.1773 15.429 31.1338C17.0997 30.0904 19.03 29.5371 20.9998 29.5371C22.9696 29.5371 24.8999 30.0904 26.5706 31.1338C28.2414 32.1773 29.5855 33.6691 30.4498 35.4392" stroke="#2FBDCE" stroke-width="2" stroke-linecap="round" stroke-linejoin="round"/>
<path d="M9.84371 19.0312C8.84726 19.0323 7.8711 18.7497 7.02929 18.2165C6.18748 17.6833 5.51479 16.9216 5.08981 16.0203C4.66483 15.1191 4.50512 14.1155 4.62933 13.1268C4.75355 12.1381 5.15656 11.2052 5.79129 10.4371C6.42601 9.66894 7.26623 9.0973 8.21376 8.78894C9.1613 8.48059 10.177 8.44827 11.1423 8.69574C12.1075 8.94321 12.9823 9.46027 13.6646 10.1865C14.3469 10.9127 14.8084 11.8181 14.9953 12.7969" stroke="#2FBDCE" stroke-width="2" stroke-linecap="round" stroke-linejoin="round"/>
<path d="M27.0049 12.7969C27.1917 11.8181 27.6532 10.9127 28.3355 10.1865C29.0178 9.46027 29.8927 8.94321 30.8579 8.69574C31.8231 8.44827 32.8389 8.48059 33.7864 8.78894C34.7339 9.0973 35.5741 9.66894 36.2089 10.4371C36.8436 11.2052 37.2466 12.1381 37.3708 13.1268C37.495 14.1155 37.3353 15.1191 36.9103 16.0203C36.4854 16.9216 35.8127 17.6833 34.9709 18.2165C34.129 18.7497 33.1529 19.0323 32.1564 19.0312" stroke="#2FBDCE" stroke-width="2" stroke-linecap="round" stroke-linejoin="round"/>
</svg>
